<svg id="Layer_1" data-name="Layer 1" xmlns="http://www.w3.org/2000/svg" viewBox="0 0 1080 1080"><defs><style>.cls-1{fill:#5c5d60;}.cls-2,.cls-5{fill:#fff;}.cls-3,.cls-4,.cls-6{fill:none;stroke-miterlimit:10;}.cls-3,.cls-4{stroke:#5c5d60;}.cls-3{stroke-width:2px;}.cls-4{stroke-width:1.63px;}.cls-5{font-size:27.57px;font-family:Gotham-Medium, Gotham;font-weight:500;}.cls-6{stroke:#000;stroke-width:4px;}</style></defs><path class="cls-1" d="M133.88,147.1c-7.89,0-22.8-1.27-22.8-6.09s14.91-6.1,22.8-6.1,22.8,1.28,22.8,6.1S141.76,147.1,133.88,147.1Z"/><path class="cls-2" d="M133.88,135.91c12,0,21.8,2.28,21.8,5.1s-9.76,5.09-21.8,5.09-21.8-2.28-21.8-5.09,9.76-5.1,21.8-5.1m0-2c-2.44,0-23.8.2-23.8,7.1s21.36,7.09,23.8,7.09,23.8-.2,23.8-7.09-21.37-7.1-23.8-7.1Z"/><path class="cls-1" d="M133.17,138.91c-.75-.75-18.29-18.44-18.29-31.71a19,19,0,1,1,38,0c0,13.27-17.55,31-18.3,31.71l-.7.71Z"/><path class="cls-2" d="M133.88,89.2a18,18,0,0,1,18,18c0,13-18,31-18,31s-18-18-18-31a18,18,0,0,1,18-18m0-2a20,20,0,0,0-20,20c0,13.68,17.82,31.66,18.58,32.42l1.42,1.41,1.41-1.41c.76-.76,18.59-18.74,18.59-32.42a20,20,0,0,0-20-20Z"/><circle class="cls-1" cx="133.88" cy="106.98" r="10.5"/><path class="cls-2" d="M133.88,97.48a9.5,9.5,0,1,1-9.5,9.5,9.5,9.5,0,0,1,9.5-9.5m0-2a11.5,11.5,0,1,0,11.5,11.5,11.51,11.51,0,0,0-11.5-11.5Z"/><path class="cls-1" d="M224.74,96.63l-.55-2-9.76-5.41-9.11,16.45,7.47,4.14a132.19,132.19,0,0,1-10.29,18.6l-7.57-4.19-9.11,16.45,9.86,5.45h0c11.2-3.37,18.56-12.19,24-22.55l.17-.34C224.25,114.66,227.28,105.91,224.74,96.63Z"/><rect class="cls-1" x="255.81" y="99.14" width="54" height="37.03"/><polygon class="cls-1" points="253.06 98.14 312.57 98.14 282.81 122.99 253.06 98.14"/><path class="cls-2" d="M309.81,99.14l-27,22.55-27-22.55h54m5.52-2h-65l4.23,3.53,27,22.55,1.28,1.08,1.29-1.08,27-22.55,4.23-3.53Z"/><polygon class="cls-1" points="380 92.93 370.01 105.25 380.08 117.66 370.01 130.07 380 142.38 400.06 117.66 380 92.93"/><polygon class="cls-1" points="360.02 92.93 339.96 117.66 360.02 142.38 370.01 130.06 359.94 117.66 370.01 105.25 360.02 92.93"/><polygon class="cls-1" points="479.66 112.62 467.34 102.63 454.93 112.7 442.52 102.63 430.21 112.62 454.93 132.68 479.66 112.62"/><polygon class="cls-1" points="559.26 122.69 546.94 132.68 534.53 122.61 522.12 132.67 509.81 122.69 534.53 102.63 559.26 122.69"/><polygon class="cls-1" points="609.47 142.38 619.46 130.06 609.39 117.65 619.46 105.24 609.47 92.93 589.41 117.65 609.47 142.38"/><polygon class="cls-1" points="659.6 142.38 649.61 130.06 659.68 117.65 649.61 105.24 659.6 92.93 679.66 117.65 659.6 142.38"/><path class="cls-1" d="M224,234h56a2,2,0,0,1,2,2v36a0,0,0,0,1,0,0H222a0,0,0,0,1,0,0V236A2,2,0,0,1,224,234Z"/><path class="cls-1" d="M216,274h72a0,0,0,0,1,0,0v3a2,2,0,0,1-2,2H218a2,2,0,0,1-2-2v-3A0,0,0,0,1,216,274Z"/><rect class="cls-2" x="227" y="239" width="50" height="28"/><circle class="cls-1" cx="420.75" cy="252" r="9"/><circle class="cls-1" cx="364.5" cy="220.5" r="4.5"/><circle class="cls-1" cx="364.5" cy="283.5" r="4.5"/><circle class="cls-1" cx="418.5" cy="229.5" r="4.5"/><circle class="cls-1" cx="427.5" cy="283.5" r="4.5"/><polyline class="cls-3" points="364.5 283.5 396 252 364.5 220.5"/><polyline class="cls-3" points="427.5 283.5 396 252 418.5 229.5"/><line class="cls-3" x1="420.75" y1="252" x2="364.5" y2="283.5"/><path class="cls-1" d="M547,244.76,576,252v-9l-3.64-2.73v-3.59a2.67,2.67,0,0,0-5.32-.4l-3.68-2.76v-2.84a2.68,2.68,0,0,0-5.15-1l-9-6.71c-.07-.81-.14-1.63-.26-2.44a62.76,62.76,0,0,0-2.64-11.25A45.08,45.08,0,0,0,540.9,198h-1.8a45.08,45.08,0,0,0-5.46,11.25A62.76,62.76,0,0,0,531,220.5c-.12.81-.19,1.63-.26,2.44l-9,6.71a2.68,2.68,0,0,0-5.15,1v2.84L513,236.28a2.67,2.67,0,0,0-5.32.4v3.59L504,243v9l29-7.24q1,10.37,2.52,20.74l1,7.09L522,283.5V288l16.37-4.09c.23,1.36.47,2.73.73,4.09h1.8c.26-1.36.5-2.73.73-4.09L558,288v-4.5l-14.55-10.91,1-7.09Q546,255.13,547,244.76Z"/><rect class="cls-1" x="693" y="91.5" width="45" height="52.5"/><ellipse class="cls-4" cx="715.5" cy="94.5" rx="9" ry="13.5"/><text class="cls-5" transform="translate(706.32 127.08)">$</text><rect class="cls-1" x="801" y="99" width="18" height="45"/><rect class="cls-1" x="819" y="102.63" width="9" height="41.37"/><rect class="cls-1" x="792" y="117" width="9" height="27"/><rect class="cls-1" x="846" y="112.5" width="9" height="31.5"/><rect class="cls-1" x="828" y="90" width="18" height="54"/><polygon class="cls-1" points="830.25 81 828 85.5 832.5 85.5 830.25 81"/><polygon class="cls-1" points="810 87 801 99 819 99 810 87"/><polygon class="cls-1" points="834.71 85.5 832.46 90 836.96 90 834.71 85.5"/><polygon class="cls-1" points="839.29 85.5 837.04 90 841.54 90 839.29 85.5"/><polygon class="cls-1" points="843.75 81 841.5 85.5 846 85.5 843.75 81"/><rect class="cls-1" x="828" y="85.5" width="4.5" height="4.5"/><rect class="cls-1" x="841.5" y="85.5" width="4.5" height="4.5"/><path class="cls-1" d="M79.39,105.48c-.28-.78-.58-1.55-.92-2.31A29.25,29.25,0,0,0,63.83,88.53c-.75-.34-1.53-.64-2.31-.92a29,29,0,0,0-19,0c-.78.28-1.56.58-2.31.92a29.25,29.25,0,0,0-14.64,14.64c-.34.75-.64,1.53-.92,2.31a29,29,0,0,0,0,19c.28.78.58,1.56.92,2.31a29.25,29.25,0,0,0,14.64,14.64c.76.34,1.53.64,2.31.92a29,29,0,0,0,19,0c.78-.28,1.55-.58,2.31-.92a29.25,29.25,0,0,0,14.64-14.64c.34-.76.64-1.53.92-2.31a29,29,0,0,0,0-19Zm-4.13,18.67a43.85,43.85,0,0,1-4.8,2.68A48,48,0,0,0,72,117h5A25,25,0,0,1,75.26,124.15Zm-35.08,9.33A47.08,47.08,0,0,0,50,135v5a25,25,0,0,1-7.15-1.65A42.6,42.6,0,0,1,40.18,133.48ZM27.09,117h5a48.14,48.14,0,0,0,1.48,9.8,43.81,43.81,0,0,1-4.79-2.65A25,25,0,0,1,27.09,117Zm1.65-11.15a43.6,43.6,0,0,1,4.78-2.65,46.34,46.34,0,0,0-1.47,9.8h-5A25,25,0,0,1,28.74,105.85ZM63.8,96.53A48.14,48.14,0,0,0,54,95.05v-5a25,25,0,0,1,7.15,1.65A43.81,43.81,0,0,1,63.8,96.53ZM76.91,113H72a47.08,47.08,0,0,0-1.47-9.82,42.6,42.6,0,0,1,4.78,2.67A25,25,0,0,1,76.91,113Zm-9,0H54v-14a44.32,44.32,0,0,1,11.73,2.23A42.91,42.91,0,0,1,68,113Zm-18,0h-14a43.06,43.06,0,0,1,2.22-11.73A43.06,43.06,0,0,1,50,99.05Zm-14,4H50V131a42.91,42.91,0,0,1-11.72-2.22A44.32,44.32,0,0,1,36.05,117Zm18,0H68a44.66,44.66,0,0,1-2.22,11.73A44.66,44.66,0,0,1,54,131ZM71.35,99.19c-.85-.38-1.68-.73-2.51-1-.33-.87-.68-1.71-1-2.5A24.24,24.24,0,0,1,71.35,99.19ZM50,95.05a46.34,46.34,0,0,0-9.8,1.47,43.6,43.6,0,0,1,2.65-4.78A25,25,0,0,1,50,90.09Zm-13.8.6c-.36.79-.71,1.63-1.05,2.5-.87.34-1.71.69-2.5,1A24.82,24.82,0,0,1,36.2,95.65ZM32.65,130.8c.79.36,1.63.71,2.5,1,.31.83.66,1.66,1,2.51A24.24,24.24,0,0,1,32.65,130.8ZM54,135a48,48,0,0,0,9.83-1.49,43.85,43.85,0,0,1-2.68,4.8A25,25,0,0,1,54,139.91Zm13.81-.6c.38-.84.73-1.68,1-2.5.82-.31,1.66-.66,2.5-1A24.68,24.68,0,0,1,67.81,134.35Z"/><circle class="cls-6" cx="45" cy="189" r="27"/><path class="cls-6" d="M18,181a45,45,0,0,1,54,0"/><path class="cls-6" d="M18,197a45,45,0,0,0,54,0"/><line class="cls-6" x1="18" y1="189" x2="72" y2="189"/><line class="cls-6" x1="45" y1="162" x2="45" y2="216"/><path class="cls-6" d="M37,162a45,45,0,0,0,0,54"/><path class="cls-6" d="M53,162a45,45,0,0,1,0,54"/><path class="cls-1" d="M72.62,254.82c-.17-.53-.36-1.06-.56-1.58A29.14,29.14,0,0,0,55.43,236.6c-.53-.2-1.06-.4-1.6-.57a28.94,28.94,0,0,0-17.66,0c-.54.17-1.07.37-1.6.57A29.12,29.12,0,0,0,18,253.22c-.21.53-.4,1.06-.57,1.6a28.94,28.94,0,0,0,0,17.66c.17.54.36,1.07.57,1.6a29.11,29.11,0,0,0,16.64,16.63c.52.2,1,.39,1.58.56a28.94,28.94,0,0,0,17.66,0c.53-.17,1.06-.36,1.58-.56a29.11,29.11,0,0,0,16.65-16.65c.2-.52.39-1.05.56-1.58a28.94,28.94,0,0,0,0-17.66Zm-3.89,16.69a42.7,42.7,0,0,1-6.12,3.35A47.33,47.33,0,0,0,64,265.65h6A24.77,24.77,0,0,1,68.73,271.51ZM33.8,281.28A46.11,46.11,0,0,0,43,282.6v6a25.1,25.1,0,0,1-5.85-1.19A41.57,41.57,0,0,1,33.8,281.28ZM20.09,265.65h6a47.33,47.33,0,0,0,1.34,9.21,43.69,43.69,0,0,1-6.12-3.36A24.59,24.59,0,0,1,20.09,265.65Zm1.18-9.85a44,44,0,0,1,6.1-3.34,46,46,0,0,0-1.32,9.19h-6A24.79,24.79,0,0,1,21.27,255.8ZM56.2,246A47.91,47.91,0,0,0,47,244.7v-6a24.59,24.59,0,0,1,5.85,1.18A43.72,43.72,0,0,1,56.2,246Zm13.71,15.61H64a46.11,46.11,0,0,0-1.32-9.2,43.07,43.07,0,0,1,6.1,3.35A24.59,24.59,0,0,1,69.91,261.65Zm-10,0H47V248.71a43.8,43.8,0,0,1,11,2A42.62,42.62,0,0,1,60,261.65Zm-17,0H30.05a42.54,42.54,0,0,1,2-11,42.47,42.47,0,0,1,11-2Zm-12.95,4H43v13a42.12,42.12,0,0,1-11-2A44.26,44.26,0,0,1,30.05,265.65Zm17,0H60a44.4,44.4,0,0,1-2,11,44,44,0,0,1-11,2Zm18.51-16.27a47.15,47.15,0,0,0-4.39-1.86c-.58-1.58-1.21-3-1.86-4.39A25.42,25.42,0,0,1,65.51,249.38ZM43,244.71A47,47,0,0,0,33.8,246a45,45,0,0,1,3.35-6.1A24.59,24.59,0,0,1,43,238.74Zm-12.26-1.58c-.65,1.35-1.28,2.82-1.86,4.4a46.57,46.57,0,0,0-4.4,1.87A25.2,25.2,0,0,1,30.74,243.13Zm-6.26,34.78c1.35.65,2.81,1.28,4.39,1.86a47.15,47.15,0,0,0,1.86,4.39A25.25,25.25,0,0,1,24.48,277.91ZM47,282.6a48,48,0,0,0,9.21-1.33,42.27,42.27,0,0,1-3.36,6.11A25.1,25.1,0,0,1,47,288.57Zm12.27,1.56a45.89,45.89,0,0,0,1.86-4.38c1.43-.52,2.9-1.14,4.38-1.85A25.47,25.47,0,0,1,59.27,284.16Z"/><path class="cls-1" d="M443,370.64c10.16,0,20.31,0,30.47,0a5.23,5.23,0,0,1,5.25,4.3,5.4,5.4,0,0,1,.07.8V437a5.1,5.1,0,0,1-4.86,5.08H412.61a5,5,0,0,1-5.13-3.67,5.46,5.46,0,0,1-.22-1.51q0-30.56,0-61.11a5.07,5.07,0,0,1,5.1-5.17c2.45,0,4.91,0,7.36,0Zm2.4,31.39c0-1.43,0-2.66,0-3.88,0-.59-.15-.81-.79-.81q-4.38.06-8.77,0c-.69,0-.85.22-.85.88q0,16.29,0,32.59c0,.67.17.9.86.89,3,0,6.07,0,9.1,0,.68,0,.87-.2.87-.88q0-8.19,0-16.39a20.23,20.23,0,0,1,.28-3.39c.41-2.31,1.46-4.19,3.94-4.8a9.47,9.47,0,0,1,2.38-.22,4.37,4.37,0,0,1,4.64,3.62,20.66,20.66,0,0,1,.46,4.3c.05,5.62,0,11.24,0,16.86,0,.66.16.91.86.9,3,0,6.07,0,9.1,0,.65,0,.83-.2.83-.84q0-9.08,0-18.14a32.45,32.45,0,0,0-.69-7.36c-.78-3.31-2.31-6.13-5.56-7.58a14.82,14.82,0,0,0-10.05-.84A11,11,0,0,0,445.41,402Zm-16.88,12.44q0-8.16,0-16.33c0-.6-.16-.8-.79-.79-3.08,0-6.15,0-9.23,0-.61,0-.8.15-.8.78q0,16.39,0,32.78c0,.65.24.79.82.79,3,0,6.06,0,9.1,0,.89,0,.89,0,.89-.89Zm-5.39-21.7a6.21,6.21,0,1,0-6.21-6.16A6.16,6.16,0,0,0,423.14,392.77Z"/><path class="cls-1" d="M487.07,433a4.8,4.8,0,1,1-4.83,4.82A4.74,4.74,0,0,1,487.07,433Zm-.22,9.16a4.4,4.4,0,1,0,.46-8.78,4.4,4.4,0,1,0-.46,8.78Z"/><path class="cls-1" d="M487.7,438.16l1.33,2.09-.15.17a2.61,2.61,0,0,1-.65-.46,15,15,0,0,1-1-1.51.72.72,0,0,0-1-.33c-.14.05-.22.42-.24.65,0,.4,0,.81,0,1.2,0,.13-.18.24-.28.36-.1-.12-.29-.23-.29-.35,0-1.43,0-2.86,0-4.28,0-.14.3-.36.48-.38a15.45,15.45,0,0,1,1.8,0,1.27,1.27,0,0,1,1.37,1.18,1.35,1.35,0,0,1-1,1.47ZM486,435.79c0,.55,0,1,0,1.51a.39.39,0,0,0,.26.29,9.19,9.19,0,0,0,1.58-.11.68.68,0,0,0,.49-.94,1.24,1.24,0,0,0-.7-.72A7.46,7.46,0,0,0,486,435.79Z"/><path class="cls-1" d="M581.46,390.59c-.12-8.57-4.29-14.69-12-18.34a17.63,17.63,0,0,0-5.67-1.5c-.23,0-.46-.08-.69-.12H527.92c-1.08.19-2.18.29-3.23.58-8.06,2.24-13,7.47-14.83,15.63-.16.72-.24,1.47-.36,2.2V424.2c.19,1.08.3,2.18.59,3.23q3.36,12.07,15.61,14.8a18.81,18.81,0,0,0,4,.37q15.75,0,31.5,0A19.57,19.57,0,0,0,578,434a19.21,19.21,0,0,0,3.53-11.36C581.5,412,581.61,401.27,581.46,390.59Zm-8.83,39.9a13.31,13.31,0,0,1-11.31,5.74q-15.81,0-31.63,0a13.45,13.45,0,0,1-13.07-9.15,14,14,0,0,1-.73-4.76q0-15.7,0-31.42c0-6.22,3.45-11.21,9.21-13.14a15.06,15.06,0,0,1,4.68-.72c10.47-.06,21,0,31.42,0a13.49,13.49,0,0,1,13.19,9.18,14.43,14.43,0,0,1,.72,4.84v31.28A13.42,13.42,0,0,1,572.63,430.49Z"/><path class="cls-1" d="M545.49,388.07a18.55,18.55,0,1,0,18.56,18.56A18.62,18.62,0,0,0,545.49,388.07Zm0,30.7a12.15,12.15,0,1,1,12.17-12.14A12.15,12.15,0,0,1,545.48,418.77Z"/><path class="cls-1" d="M564.93,382.68a4.66,4.66,0,1,0,4.58,4.73A4.7,4.7,0,0,0,564.93,382.68Z"/></svg>