<svg id="Layer_1" data-name="Layer 1" xmlns="http://www.w3.org/2000/svg" viewBox="0 0 149 149"><defs><style>.cls-1{fill:none;}.cls-2{fill:#5c5d60;}.cls-3{fill:#e4e5e6;}</style></defs><path class="cls-1" d="M12.5,146.74h124c5.52,0,10-4.05,10-9.05V40.92H2.5v96.77C2.5,142.69,7,146.74,12.5,146.74Z"/><path class="cls-2" d="M136.5,149H12.5C5.61,149,0,143.93,0,137.69v-99H149v99C149,143.93,143.39,149,136.5,149ZM5,43.18v94.51c0,3.74,3.36,6.79,7.5,6.79h124c4.14,0,7.5-3,7.5-6.79V43.18Z"/><path class="cls-3" d="M2.5,25.54V40.92h144V25.54c0-5-4.48-9-10-9H12.5C7,16.5,2.5,20.55,2.5,25.54Z"/><path class="cls-2" d="M149,43.18H0V25.54c0-6.23,5.61-11.31,12.5-11.31h124c6.89,0,12.5,5.08,12.5,11.31ZM5,38.66H144V25.54c0-3.74-3.36-6.78-7.5-6.78H12.5c-4.14,0-7.5,3-7.5,6.78Z"/><path class="cls-2" d="M41.94,33.19a3.63,3.63,0,0,1-3.63-3.63V3.63a3.63,3.63,0,0,1,7.26,0V29.56A3.63,3.63,0,0,1,41.94,33.19Z"/><path class="cls-2" d="M107.06,33.19a3.63,3.63,0,0,1-3.63-3.63V3.63a3.63,3.63,0,1,1,7.26,0V29.56A3.63,3.63,0,0,1,107.06,33.19Z"/><path class="cls-2" d="M44.16,88.92v-.11C44.16,77.47,51.37,68,62.77,68s18.5,9.39,18.5,20.73v.12c0,11.34-7.16,20.85-18.61,20.85S44.16,100.26,44.16,88.92Zm25.94,0v-.11c0-6.36-3-11-7.44-11s-7.34,4.47-7.34,10.88v.12c0,6.41,3,11,7.45,11S70.1,95.28,70.1,88.92Z"/><path class="cls-2" d="M92.1,78.84l-6.76,1.55L83.22,71.8,95,68.48H103v40.37H92.1Z"/></svg>