<svg xmlns="http://www.w3.org/2000/svg" viewBox="0 0 259.27 29.62"><defs><style>.cls-1{fill:#c2d500;}.cls-2{fill:#00ac98;}.cls-3{fill:#333132;}</style></defs><g id="Layer_2" data-name="Layer 2"><g id="Layer_1-2" data-name="Layer 1"><polygon class="cls-1" points="23.98 0 18 7.38 24.03 14.81 18 22.25 23.98 29.62 36 14.81 23.98 0"/><polygon class="cls-2" points="12.01 0 0 14.81 12.01 29.62 18 22.25 11.97 14.81 18 7.38 12.01 0"/><path class="cls-3" d="M49,20.1A4,4,0,0,0,50,19.41a10.51,10.51,0,0,0,1.17-1.25c.42-.52.89-1.17,1.42-2l5.26-8h.73l1.62,10.66a2.12,2.12,0,0,0,.2.69.86.86,0,0,0,.33.35,1.62,1.62,0,0,0,.55.17l0,.16H56.19l0-.16a4.71,4.71,0,0,0,.91-.14.53.53,0,0,0,.36-.28,1.34,1.34,0,0,0,0-.66l-.89-6.72-.22-1.66h.2l-1.12,1.67L53,16.1a6.63,6.63,0,0,0-1,2,1.63,1.63,0,0,0,.11,1.33,1.65,1.65,0,0,0,1.12.66l0,.16H48.94Zm3.74-3.76.13-.28H58l0,.28Z"/><path class="cls-3" d="M65.7,20.1c.39-.05.67-.09.83-.13a.85.85,0,0,0,.37-.18,1,1,0,0,0,.2-.41L69.61,9.31a.55.55,0,0,0,0-.38.39.39,0,0,0-.25-.19,2.47,2.47,0,0,0-.62-.12l-.17,0,0-.17h5.43l0,.17c-.51.05-.87.09-1.08.13a1,1,0,0,0-.46.18.81.81,0,0,0-.22.4l-2.73,11H65.67ZM70.45,20a3.88,3.88,0,0,0,1.71-.34,5,5,0,0,0,1.43-1.21c.5-.58,1.25-1.56,2.24-2.93H76l-1.36,4.73H69l.08-.25Z"/><path class="cls-3" d="M79.55,11.9a2.28,2.28,0,0,1,.89.17,1.45,1.45,0,0,1,.61.5,1.24,1.24,0,0,1,.22.74,3.8,3.8,0,0,1-.2,1c-.13.46-.34,1.09-.6,1.9S80,17.58,79.91,18a3.77,3.77,0,0,0-.2,1,.51.51,0,0,0,.18.41.61.61,0,0,0,.45.16,1.17,1.17,0,0,0,.73-.37A4.9,4.9,0,0,0,82,17.84a14.56,14.56,0,0,0,1-2.62l-.22,1.87h-.22a13.15,13.15,0,0,1-1,2,3.52,3.52,0,0,1-1.07,1.1,2.36,2.36,0,0,1-1.29.36,1.93,1.93,0,0,1-.93-.22,1.73,1.73,0,0,1-.65-.61,1.65,1.65,0,0,1-.23-.86,4.28,4.28,0,0,1,.22-1.11c.14-.49.36-1.18.66-2.06.23-.7.41-1.26.54-1.69a4,4,0,0,0,.19-.9.36.36,0,0,0-.1-.27.34.34,0,0,0-.25-.11c-.24,0-.5.21-.78.62A9.28,9.28,0,0,0,77,15.15l-.18-.06a8.1,8.1,0,0,1,.81-1.87,3.13,3.13,0,0,1,.93-1A1.78,1.78,0,0,1,79.55,11.9Zm5.37,5.17c-.18.69-.31,1.19-.38,1.5a2.88,2.88,0,0,0-.11.61.49.49,0,0,0,.11.35.35.35,0,0,0,.29.13c.22,0,.47-.2.73-.6a7.53,7.53,0,0,0,.81-1.88l.19.06a8.7,8.7,0,0,1-.79,1.9,3.42,3.42,0,0,1-.92,1.06,1.79,1.79,0,0,1-1,.32,1.6,1.6,0,0,1-1.1-.38,1.41,1.41,0,0,1-.42-1.09A6,6,0,0,1,82.46,18c.08-.44.19-.93.34-1.48h-.15l.35-1.3.82-3.15h2.42Z"/><path class="cls-3" d="M88,20.52a1.25,1.25,0,0,1-.94-.35,1.44,1.44,0,0,1-.38-.94A3.31,3.31,0,0,1,86.9,18l2-.11a5.68,5.68,0,0,0-.17.73.88.88,0,0,0,0,.47.25.25,0,0,0,.26.18c.37,0,.72-.27,1.07-.81a7.12,7.12,0,0,0,.83-2,8.77,8.77,0,0,0,.32-2.24,2.54,2.54,0,0,0-.16-1,1.32,1.32,0,0,0-.43-.58.88.88,0,0,0-.51-.18,1.45,1.45,0,0,0-1.07.6,6.68,6.68,0,0,0-1.06,2L87.84,15a6,6,0,0,1,1.34-2.4,2.39,2.39,0,0,1,1.68-.77,2.51,2.51,0,0,1,1.21.31,2.43,2.43,0,0,1,1,.94,2.88,2.88,0,0,1,.37,1.52,2.35,2.35,0,0,1,0,.26,2.83,2.83,0,0,1,0,.29v0l-.88,2.64-1.75-.34c-.3.66-.58,1.2-.83,1.63a3.84,3.84,0,0,1-.84,1A1.66,1.66,0,0,1,88,20.52Zm5.37,0a2.56,2.56,0,0,1-1.21-.31,2.47,2.47,0,0,1-1-.94,2.88,2.88,0,0,1-.37-1.52,2.62,2.62,0,0,1,0-.27c0-.09,0-.18,0-.28v-.05l.88-2.65,1.75.35c.3-.66.58-1.2.83-1.63a3.84,3.84,0,0,1,.84-1,1.68,1.68,0,0,1,1.06-.38,1.25,1.25,0,0,1,.94.35,1.42,1.42,0,0,1,.38.94,3.34,3.34,0,0,1-.2,1.28l-2,.11a6.09,6.09,0,0,0,.17-.73.88.88,0,0,0,0-.47.25.25,0,0,0-.26-.18c-.37,0-.72.27-1.07.81a7.12,7.12,0,0,0-.83,2A8.76,8.76,0,0,0,93,18.15a2.56,2.56,0,0,0,.16,1,1.23,1.23,0,0,0,.43.57.83.83,0,0,0,.51.19,1.45,1.45,0,0,0,1.07-.6,6.68,6.68,0,0,0,1.06-2l.16.08a6,6,0,0,1-1.34,2.4A2.4,2.4,0,0,1,93.39,20.52Z"/><path class="cls-3" d="M100.69,11.9a2.28,2.28,0,0,1,.89.17,1.48,1.48,0,0,1,.62.5,1.32,1.32,0,0,1,.22.74,4.23,4.23,0,0,1-.2,1c-.14.46-.34,1.09-.61,1.9s-.43,1.33-.56,1.77a3.65,3.65,0,0,0-.19,1,.53.53,0,0,0,.17.41.64.64,0,0,0,.45.16,1.22,1.22,0,0,0,.74-.37,4.7,4.7,0,0,0,.93-1.34,14.56,14.56,0,0,0,1-2.62l-.22,1.87h-.22a11.49,11.49,0,0,1-1,2,3.5,3.5,0,0,1-1.06,1.1,2.41,2.41,0,0,1-1.29.36,1.88,1.88,0,0,1-.93-.22,1.66,1.66,0,0,1-.65-.61,1.57,1.57,0,0,1-.24-.86,4.28,4.28,0,0,1,.22-1.11c.15-.49.37-1.18.66-2.06.23-.7.41-1.26.54-1.69a3.48,3.48,0,0,0,.19-.9.36.36,0,0,0-.1-.27.32.32,0,0,0-.24-.11c-.25,0-.51.21-.78.62a9.21,9.21,0,0,0-.86,1.84L98,15.09a8.08,8.08,0,0,1,.82-1.87,3.11,3.11,0,0,1,.92-1A1.81,1.81,0,0,1,100.69,11.9Zm5.38,5.17c-.19.69-.31,1.19-.39,1.5a3.77,3.77,0,0,0-.11.61.54.54,0,0,0,.11.35.37.37,0,0,0,.3.13c.22,0,.46-.2.73-.6a7.53,7.53,0,0,0,.81-1.88l.18.06a8.24,8.24,0,0,1-.79,1.9A3.3,3.3,0,0,1,106,20.2a1.74,1.74,0,0,1-1,.32,1.6,1.6,0,0,1-1.1-.38,1.41,1.41,0,0,1-.42-1.09A6,6,0,0,1,103.6,18c.08-.44.19-.93.34-1.48h-.15l.35-1.3.83-3.15h2.42Z"/><path class="cls-3" d="M109.66,15.26l.39-1.5a3.77,3.77,0,0,0,.11-.61.54.54,0,0,0-.11-.35.38.38,0,0,0-.3-.13c-.22,0-.46.2-.73.6a7.36,7.36,0,0,0-.81,1.88l-.18-.06a8.08,8.08,0,0,1,.79-1.91,3.35,3.35,0,0,1,.91-1,1.8,1.8,0,0,1,1-.32,1.57,1.57,0,0,1,1.09.38,1.38,1.38,0,0,1,.43,1.09,6,6,0,0,1-.12,1.05c-.08.43-.2.93-.34,1.48h.14l-.47,1.78-.7,2.67h-2.42Zm1.8,2.33.22-2.35H112a9.32,9.32,0,0,1,1.08-2.07,3.77,3.77,0,0,1,1.06-1.06,2,2,0,0,1,1-.3,1.53,1.53,0,0,1,.62.11L115,14.54l0,0a2.67,2.67,0,0,0-.64-.49,1.31,1.31,0,0,0-.61-.17,1.18,1.18,0,0,0-.85.37,3.52,3.52,0,0,0-.71,1.17A15.2,15.2,0,0,0,111.46,17.59Z"/><path class="cls-3" d="M118.83,20.52a2.21,2.21,0,0,1-1-.23,1.73,1.73,0,0,1-.69-.65,2,2,0,0,1-.24-1,5.67,5.67,0,0,1,.16-1.29c.11-.47.28-1.09.5-1.87.18-.56.32-1,.41-1.43a4.58,4.58,0,0,0,.14-1,.4.4,0,0,0-.09-.27.35.35,0,0,0-.26-.11c-.25,0-.51.21-.78.62a8.74,8.74,0,0,0-.85,1.84l-.19-.06a8.53,8.53,0,0,1,.82-1.87,3.13,3.13,0,0,1,.93-1,1.78,1.78,0,0,1,1-.3,2.31,2.31,0,0,1,.89.17,1.51,1.51,0,0,1,.61.5,1.24,1.24,0,0,1,.22.74,4.5,4.5,0,0,1-.15,1.08c-.09.41-.23.9-.42,1.49s-.34,1.16-.44,1.59a4.91,4.91,0,0,0-.14,1.14,1.17,1.17,0,0,0,.12.6.54.54,0,0,0,.48.19,1.13,1.13,0,0,0,.87-.47,5.54,5.54,0,0,0,.86-1.62,30.48,30.48,0,0,0,1-3.15L122,17.31l-.21-.07A9.09,9.09,0,0,1,121,19a3.58,3.58,0,0,1-.95,1.12A2,2,0,0,1,118.83,20.52Zm-.22,3.23a3.23,3.23,0,0,1-1.58-.33,1.62,1.62,0,0,1-.78-.9,2.2,2.2,0,0,1,0-1.27l2.06-.09a7.35,7.35,0,0,0-.35,1.22,1.56,1.56,0,0,0,0,.85.6.6,0,0,0,.62.33,1.71,1.71,0,0,0,.91-.25,2.45,2.45,0,0,0,.77-.92,8.52,8.52,0,0,0,.67-1.82l1-3.61-.13-.07.72-2.73.53-2.09h2.42l-2.15,8.19a4.4,4.4,0,0,1-1.64,2.63A5.12,5.12,0,0,1,118.61,23.75Z"/><path class="cls-3" d="M129.32,20.1c.39-.05.67-.09.83-.13a.76.76,0,0,0,.36-.18.79.79,0,0,0,.2-.41l2.52-10.07a.55.55,0,0,0,0-.38.41.41,0,0,0-.25-.19,2.48,2.48,0,0,0-.63-.12l-.16,0,0-.17h3.85l-2.74,11a.57.57,0,0,0,0,.39.4.4,0,0,0,.24.19,4.15,4.15,0,0,0,.63.12l.16,0,0,.16h-5.07Zm9.21.42a1.88,1.88,0,0,1-1.46-.5,2,2,0,0,1-.51-1.19,12.27,12.27,0,0,1,0-1.85,13.17,13.17,0,0,0,0-1.53,1.85,1.85,0,0,0-.33-.94,1.07,1.07,0,0,0-.93-.37h-.81l.06-.26h1.17a3.14,3.14,0,0,0,2.59-1,4.45,4.45,0,0,0,.82-2.88,1.19,1.19,0,0,0-.41-1,2.39,2.39,0,0,0-1.37-.31h-1.5l.05-.22h1.51a7.82,7.82,0,0,1,2.51.35,3.42,3.42,0,0,1,1.5.93A1.94,1.94,0,0,1,141.9,11a2.18,2.18,0,0,1-.81,1.75,5.27,5.27,0,0,1-2.14,1,11.81,11.81,0,0,1-2.86.33h-.92l0-.05a4.86,4.86,0,0,1,2.69.58,2.39,2.39,0,0,1,1,1.39,8.38,8.38,0,0,1,.17,1.93,5.62,5.62,0,0,0,0,.85,1,1,0,0,0,.15.48.48.48,0,0,0,.42.2c.24,0,.48-.17.75-.49a4.33,4.33,0,0,0,.68-1.33l.17.06a6.22,6.22,0,0,1-.68,1.49,3.23,3.23,0,0,1-.92,1A2,2,0,0,1,138.53,20.52Z"/><path class="cls-3" d="M145.33,20.52a3.28,3.28,0,0,1-1.6-.41,3.11,3.11,0,0,1-1.17-1.19,3.57,3.57,0,0,1-.44-1.79,5.12,5.12,0,0,1,.7-2.59,5.62,5.62,0,0,1,1.83-2,4.3,4.3,0,0,1,2.4-.75,3.18,3.18,0,0,1,1.3.24,2,2,0,0,1,.83.64,1.43,1.43,0,0,1,.3.86A2,2,0,0,1,148,15.49a9.85,9.85,0,0,1-3.65.59l0-.2a3.53,3.53,0,0,0,1.87-.38,2.51,2.51,0,0,0,1.08-1.11,3.66,3.66,0,0,0,.34-1.55,1,1,0,0,0-.15-.62.57.57,0,0,0-.48-.19q-.67,0-1.26.93a8.22,8.22,0,0,0-.94,2.26,9.51,9.51,0,0,0-.35,2.38,5.45,5.45,0,0,0,.15,1.42,1.52,1.52,0,0,0,.48.79,1.45,1.45,0,0,0,.91.25,2,2,0,0,0,.95-.29,3.37,3.37,0,0,0,1-1,6,6,0,0,0,.78-1.66l.2,0a6.36,6.36,0,0,1-1,2,3.25,3.25,0,0,1-1.24,1A3.51,3.51,0,0,1,145.33,20.52Z"/><path class="cls-3" d="M152.48,20.5a2,2,0,0,1-1.15-.37,2.6,2.6,0,0,1-.86-1.13,4.74,4.74,0,0,1-.32-1.84,5.25,5.25,0,0,1,.7-2.59,5.79,5.79,0,0,1,1.8-2,3.8,3.8,0,0,1,2.2-.76,1.48,1.48,0,0,1,.81.21,1.41,1.41,0,0,1,.53.6,3,3,0,0,1,.22,1h-.17a2.87,2.87,0,0,0-.14-.74,1.19,1.19,0,0,0-.32-.48.77.77,0,0,0-.51-.17c-.48,0-.93.39-1.36,1.16a11.17,11.17,0,0,0-1,2.67,9.89,9.89,0,0,0-.4,2.35,1.8,1.8,0,0,0,.2.94.59.59,0,0,0,.52.31,1.23,1.23,0,0,0,.85-.5,5.41,5.41,0,0,0,.86-1.36,10.23,10.23,0,0,0,.69-2l1-3.77H159l-1.32,5c-.18.69-.31,1.19-.38,1.5a2.88,2.88,0,0,0-.11.61.49.49,0,0,0,.11.35.35.35,0,0,0,.29.13c.22,0,.46-.2.73-.6a7.53,7.53,0,0,0,.81-1.88l.18.06a7.82,7.82,0,0,1-.79,1.9,3.41,3.41,0,0,1-.91,1.06,1.79,1.79,0,0,1-1,.32,1.58,1.58,0,0,1-1.1-.38,1.41,1.41,0,0,1-.43-1.09,6,6,0,0,1,.12-1.05c.08-.44.2-.93.34-1.48l.48.22-.31.68-.46-.07a8.07,8.07,0,0,1-.68,1.55,4.18,4.18,0,0,1-.94,1.15A1.79,1.79,0,0,1,152.48,20.5Z"/><path class="cls-3" d="M162.83,17.09c-.19.68-.32,1.18-.39,1.49a3.54,3.54,0,0,0-.11.6.54.54,0,0,0,.11.35.35.35,0,0,0,.29.13c.22,0,.47-.2.74-.6a7.21,7.21,0,0,0,.8-1.88l.19.06a11.63,11.63,0,0,1-.75,1.94,2.85,2.85,0,0,1-.86,1,1.93,1.93,0,0,1-1.11.31,1.91,1.91,0,0,1-.8-.16,1.21,1.21,0,0,1-.6-.52,1.78,1.78,0,0,1-.23-.95,4.51,4.51,0,0,1,.07-.73,8.89,8.89,0,0,1,.22-1.07l2.06-7.79a.64.64,0,0,0,0-.44.4.4,0,0,0-.31-.2,5.55,5.55,0,0,0-.77-.06h0l0-.17h3.72l-.75,2.88Z"/><path class="cls-3" d="M168.42,20.1a7.84,7.84,0,0,0,.81-.14.85.85,0,0,0,.38-.19.87.87,0,0,0,.2-.41l2.51-10a.52.52,0,0,0,0-.39.41.41,0,0,0-.26-.18,3,3,0,0,0-.68-.12l0,0h0l0-.17h3.85l-3,11.83h-3.85ZM174,20a4,4,0,0,0,1.66-.32,4.52,4.52,0,0,0,1.41-1.05,29.11,29.11,0,0,0,1.92-2.3h.2l-1.16,3.92h-6.23l.07-.25Zm-1.17-5.85.07-.26,4.42-.06-.09.37Zm6.76-2a17,17,0,0,0-.89-2.27,2,2,0,0,0-.86-1,3.13,3.13,0,0,0-1.46-.27h-1.79l0-.26h5.91l-.77,3.76Z"/><path class="cls-3" d="M182.85,20.52a3.35,3.35,0,0,1-1.83-.44,2,2,0,0,1-.89-1.1,2.44,2.44,0,0,1,0-1.34l2.27-.09a5.21,5.21,0,0,0-.51,1.26,1.51,1.51,0,0,0,0,1.06c.14.29.46.43,1,.43a2.13,2.13,0,0,0,.78-.14,1.15,1.15,0,0,0,.53-.41,1.09,1.09,0,0,0,.19-.66,1.45,1.45,0,0,0-.2-.77,2.68,2.68,0,0,0-.49-.62c-.2-.17-.47-.39-.81-.65s-.72-.57-1-.79a3.19,3.19,0,0,1-.61-.82,2.41,2.41,0,0,1-.25-1.1,2,2,0,0,1,.53-1.37,3.35,3.35,0,0,1,1.31-.87,4.65,4.65,0,0,1,1.59-.29,3.14,3.14,0,0,1,1.78.44,2,2,0,0,1,.84,1.1,2.44,2.44,0,0,1,0,1.34l-2.27.09a5.55,5.55,0,0,0,.55-1.27,1.57,1.57,0,0,0,0-1c-.12-.29-.41-.43-.87-.43a1.86,1.86,0,0,0-.75.15,1.12,1.12,0,0,0-.55.42,1,1,0,0,0-.2.64,1.43,1.43,0,0,0,.19.74,2.39,2.39,0,0,0,.49.61l.8.67a10.6,10.6,0,0,1,1,.82,3.27,3.27,0,0,1,.62.83,2.26,2.26,0,0,1,.25,1.08,2.06,2.06,0,0,1-.46,1.37,2.91,2.91,0,0,1-1.26.87A5.11,5.11,0,0,1,182.85,20.52Z"/><path class="cls-3" d="M189.67,20.52a1.81,1.81,0,0,1-1.35-.43,1.63,1.63,0,0,1-.44-1.18,6.56,6.56,0,0,1,.25-1.82l1.3-5h4.28l-.08.25h-5.5l.06-.25h.46a1.17,1.17,0,0,0,.73-.21,1.32,1.32,0,0,0,.42-.75l.66-2.27h2.28l-2.3,8.69a8.9,8.9,0,0,0-.25,1.32,1,1,0,0,0,.08.63.41.41,0,0,0,.37.18,1.25,1.25,0,0,0,.91-.59,7.09,7.09,0,0,0,.95-1.89l.18.06a6.34,6.34,0,0,1-1.35,2.5A2.33,2.33,0,0,1,189.67,20.52Z"/><path class="cls-3" d="M195.89,20.5a2,2,0,0,1-1.16-.37,2.66,2.66,0,0,1-.85-1.13,4.74,4.74,0,0,1-.32-1.84,5.14,5.14,0,0,1,.7-2.59,5.87,5.87,0,0,1,1.79-2,3.86,3.86,0,0,1,2.21-.76,1.5,1.5,0,0,1,.81.21,1.33,1.33,0,0,1,.52.6,2.58,2.58,0,0,1,.22,1h-.16a2.84,2.84,0,0,0-.15-.74,1.18,1.18,0,0,0-.31-.48.78.78,0,0,0-.51-.17c-.48,0-.93.39-1.36,1.16a11.61,11.61,0,0,0-1,2.67,10.3,10.3,0,0,0-.39,2.35,1.81,1.81,0,0,0,.19.94.6.6,0,0,0,.52.31,1.25,1.25,0,0,0,.86-.5,5.71,5.71,0,0,0,.86-1.36,11.81,11.81,0,0,0,.69-2l1-3.77h2.42l-1.32,5c-.19.69-.31,1.19-.39,1.5a3.77,3.77,0,0,0-.11.61.54.54,0,0,0,.11.35.37.37,0,0,0,.3.13c.22,0,.46-.2.73-.6a7.53,7.53,0,0,0,.81-1.88l.18.06a8.24,8.24,0,0,1-.79,1.9A3.3,3.3,0,0,1,201,20.2a1.74,1.74,0,0,1-1,.32,1.62,1.62,0,0,1-1.1-.38,1.41,1.41,0,0,1-.42-1.09,6,6,0,0,1,.12-1.05c.08-.44.19-.93.34-1.48l.48.22-.31.68-.46-.07A8.74,8.74,0,0,1,198,18.9a4.2,4.2,0,0,1-.95,1.15A1.77,1.77,0,0,1,195.89,20.5Z"/><path class="cls-3" d="M205.15,20.52a1.83,1.83,0,0,1-1.36-.43,1.72,1.72,0,0,1-.44-1.18,7,7,0,0,1,.26-1.82l1.3-5h4.27l-.07.25h-5.5l.06-.25h.45a1.2,1.2,0,0,0,.74-.21,1.32,1.32,0,0,0,.42-.75l.66-2.27h2.27l-2.29,8.69a9.23,9.23,0,0,0-.26,1.32,1,1,0,0,0,.09.63.41.41,0,0,0,.37.18,1.25,1.25,0,0,0,.91-.59,7.09,7.09,0,0,0,.95-1.89l.18.06a6.34,6.34,0,0,1-1.35,2.5A2.33,2.33,0,0,1,205.15,20.52Z"/><path class="cls-3" d="M212.16,20.52a3.26,3.26,0,0,1-1.6-.41,3,3,0,0,1-1.17-1.19,3.47,3.47,0,0,1-.44-1.79,5.21,5.21,0,0,1,.69-2.59,5.74,5.74,0,0,1,1.84-2,4.27,4.27,0,0,1,2.4-.75,3.16,3.16,0,0,1,1.29.24,2,2,0,0,1,.84.64,1.48,1.48,0,0,1,.29.86,2,2,0,0,1-1.45,1.94,9.78,9.78,0,0,1-3.65.59l0-.2a3.53,3.53,0,0,0,1.87-.38,2.44,2.44,0,0,0,1.07-1.11,3.52,3.52,0,0,0,.34-1.55,1,1,0,0,0-.15-.62.53.53,0,0,0-.47-.19c-.45,0-.88.31-1.27.93a8.21,8.21,0,0,0-.93,2.26,9.07,9.07,0,0,0-.35,2.38A5.45,5.45,0,0,0,211.5,19a1.45,1.45,0,0,0,.47.79,1.48,1.48,0,0,0,.92.25,1.92,1.92,0,0,0,.94-.29,3.39,3.39,0,0,0,1-1,6,6,0,0,0,.78-1.66l.2,0a6.36,6.36,0,0,1-1,2,3.3,3.3,0,0,1-1.23,1A3.51,3.51,0,0,1,212.16,20.52Z"/><path class="cls-3" d="M220.39,20.06a7.91,7.91,0,0,0,.82-.13.72.72,0,0,0,.38-.19.91.91,0,0,0,.21-.43l2.5-10a.59.59,0,0,0,0-.4.42.42,0,0,0-.26-.19,4.9,4.9,0,0,0-.68-.12l-.05,0h0l0-.16h3.85l-2.74,10.94a.53.53,0,0,0,0,.4.56.56,0,0,0,.38.19c.19,0,.53.09,1,.14l0,.16h-5.43Zm4.4-5.74.06-.26,4.23-.05-.09.37Zm6.62-2.14a17.26,17.26,0,0,0-.89-2.28,2.15,2.15,0,0,0-.86-1,3.16,3.16,0,0,0-1.46-.27h-1.61l0-.25h5.72l-.77,3.76Z"/><path class="cls-3" d="M234.16,20.43a2.11,2.11,0,0,1-.89-.18,1.42,1.42,0,0,1-.61-.49,1.24,1.24,0,0,1-.22-.74,4.42,4.42,0,0,1,.21-1.09c.14-.5.34-1.18.61-2s.43-1.35.56-1.82a4.32,4.32,0,0,0,.2-1,.41.41,0,0,0-.1-.27.31.31,0,0,0-.25-.11c-.25,0-.51.21-.78.62a9.21,9.21,0,0,0-.86,1.84l-.18-.06a8.15,8.15,0,0,1,.83-1.88,3.35,3.35,0,0,1,.94-1,1.69,1.69,0,0,1,1-.32,2,2,0,0,1,.88.18,1.46,1.46,0,0,1,.61.51,1.34,1.34,0,0,1,.22.77,5,5,0,0,1-.23,1.19c-.15.54-.36,1.23-.63,2.08s-.42,1.3-.54,1.74a4,4,0,0,0-.2.93.43.43,0,0,0,.1.28.37.37,0,0,0,.27.11c.25,0,.5-.21.78-.62a9.28,9.28,0,0,0,.85-1.84l.19.06a8.53,8.53,0,0,1-.82,1.87,3.35,3.35,0,0,1-.93,1A1.78,1.78,0,0,1,234.16,20.43Zm1.63-9.3a1.51,1.51,0,0,1-.76-.2,1.55,1.55,0,0,1-.53-.55,1.5,1.5,0,0,1,2.05-2,1.47,1.47,0,0,1,.52.53,1.58,1.58,0,0,1,0,1.5,1.52,1.52,0,0,1-.52.55A1.49,1.49,0,0,1,235.79,11.13Z"/><path class="cls-3" d="M238.93,15.26c.18-.69.31-1.19.38-1.5a2.88,2.88,0,0,0,.11-.61.49.49,0,0,0-.11-.35.35.35,0,0,0-.29-.13c-.22,0-.46.2-.73.6a7.36,7.36,0,0,0-.81,1.88l-.18-.06a8.08,8.08,0,0,1,.79-1.91,3.23,3.23,0,0,1,.91-1,1.79,1.79,0,0,1,1-.32,1.58,1.58,0,0,1,1.1.38,1.41,1.41,0,0,1,.43,1.09,6,6,0,0,1-.12,1.05c-.08.43-.2.93-.34,1.48h.14l-.47,1.78-.7,2.67h-2.42Zm1.8,2.33.22-2.35h.35a9.32,9.32,0,0,1,1.08-2.07,3.64,3.64,0,0,1,1.06-1.06,2,2,0,0,1,1-.3,1.53,1.53,0,0,1,.62.11l-.84,2.62,0,0a2.67,2.67,0,0,0-.64-.49,1.31,1.31,0,0,0-.61-.17,1.16,1.16,0,0,0-.85.37,3.69,3.69,0,0,0-.72,1.17A16.77,16.77,0,0,0,240.73,17.59Z"/><path class="cls-3" d="M246.74,15.26c.19-.69.31-1.19.39-1.5a3.77,3.77,0,0,0,.11-.61.54.54,0,0,0-.11-.35.37.37,0,0,0-.3-.13c-.22,0-.46.2-.73.6a7.36,7.36,0,0,0-.81,1.88l-.18-.06a8.08,8.08,0,0,1,.79-1.91,3.35,3.35,0,0,1,.91-1,1.8,1.8,0,0,1,1-.32,1.62,1.62,0,0,1,1.1.38,1.41,1.41,0,0,1,.42,1.09,6,6,0,0,1-.12,1.05c-.08.43-.19.93-.34,1.48H249l-.41,1.52-.75,2.93h-2.42Zm3.36,5c.13-.55.27-1.08.4-1.61l.4-1.54c.29-1,.5-1.87.65-2.49a7.19,7.19,0,0,0,.22-1.27.57.57,0,0,0-.16-.41.53.53,0,0,0-.41-.16,1.16,1.16,0,0,0-.71.39,4.93,4.93,0,0,0-.91,1.4,15.67,15.67,0,0,0-1,2.76l.28-2.09h.24a13.35,13.35,0,0,1,.94-2,3.41,3.41,0,0,1,1-1.09,2.19,2.19,0,0,1,1.25-.36,1.5,1.5,0,0,1,.82.22,1.7,1.7,0,0,1,.56.6,1.92,1.92,0,0,1,.2.87,6.29,6.29,0,0,1-.16,1.19c-.1.52-.28,1.34-.52,2.46a.25.25,0,0,1,0,.08l0,.1-.66,2.93Zm6.45.17a2.14,2.14,0,0,1-.89-.18,1.42,1.42,0,0,1-.61-.49,1.24,1.24,0,0,1-.22-.74,4.23,4.23,0,0,1,.2-1c.14-.46.34-1.09.61-1.9s.43-1.33.56-1.77a4.13,4.13,0,0,0,.19-1,.55.55,0,0,0-.57-.57,1.2,1.2,0,0,0-.72.39,4.89,4.89,0,0,0-.93,1.4,17,17,0,0,0-1,2.76l.33-2.09h.22a12.79,12.79,0,0,1,1-2,3.62,3.62,0,0,1,1-1.08,2.21,2.21,0,0,1,1.25-.36,1.93,1.93,0,0,1,.93.22,1.79,1.79,0,0,1,.65.6,1.63,1.63,0,0,1,.24.87,4.76,4.76,0,0,1-.22,1.11c-.15.49-.37,1.18-.66,2.06-.24.7-.42,1.26-.54,1.69a3.67,3.67,0,0,0-.2.89.43.43,0,0,0,.1.28.34.34,0,0,0,.25.11c.25,0,.51-.21.78-.62a8.74,8.74,0,0,0,.85-1.84l.19.06a8.53,8.53,0,0,1-.82,1.87,3.46,3.46,0,0,1-.92,1A1.84,1.84,0,0,1,256.55,20.43Z"/></g></g></svg>